#!Matlab matrix to amc conversion
:FULLY-SPECIFIED
:DEGREES
1
root 9.287220 16.950000 -34.276200 0.000000 0.000000 0.000000
lowerback 0.000000 0.000000 0.000000
upperback 0.000000 0.000000 0.000000
thorax 0.000000 0.000000 0.000000
lowerneck -16.000000 0.000000 0.000000
upperneck 21.000000 0.000000 0.000000
head 11.000000 0.000000 0.000000
rclavicle 0.000000 0.000000
rhumerus 0.000000 0.000000 0.000000
rradius 0.000000
rwrist 0.000000
rhand 0.000000 0.000000
rfingers 0.000000
rthumb 0.000000 0.000000
lclavicle 0.000000 0.000000
lhumerus 0.000000 0.000000 0.000000
lradius 0.000000
lwrist 0.000000
lhand 0.000000 0.000000
lfingers 0.000000
lthumb 0.000000 0.000000
rfemur 0.000000 0.000000 21.000000
rtibia 0.000000
rfoot 0.000000 0.000000
rtoes 0.000000
lfemur 0.000000 0.000000 -21.000000
ltibia 0.000000
lfoot 0.000000 0.000000
ltoes 0.000000
2
root 9.287220 16.950000 -34.276200 1.714417 1.634016 0.080714
lowerback 13.983336 -0.001592 3.117023
upperback -0.561559 0.853790 3.696896
thorax -8.478341 0.366921 2.127099
lowerneck -12.536302 -1.557601 -2.492163
upperneck 26.033166 -1.434645 -0.591480
head 10.556264 -0.970560 0.016313
rclavicle -0.000000 0.000000
rhumerus -36.150954 -9.666185 -77.076327
rradius 28.193478
rwrist 1.704790
rhand -14.272096 11.237145
rfingers 7.125020
rthumb 11.873244 -18.360947
lclavicle -0.000000 0.000000
lhumerus -42.308357 8.175621 83.390630
lradius 33.458471
lwrist 3.880448
lhand -12.422711 45.554175
lfingers 7.125020
lthumb 13.634564 75.036409
rfemur -3.541093 5.023591 33.367325
rtibia 25.074379
rfoot -11.740738 -8.718801
rtoes 13.444687
lfemur -18.820936 0.309580 -13.805615
ltibia 66.789407
lfoot 2.096969 1.692234
ltoes -12.844263
3
root 9.273270 17.016600 -33.905900 1.805794 1.634016 0.096493
lowerback 13.866570 0.262772 3.629534
upperback -0.510202 1.281185 3.607309
thorax -8.377888 0.549074 1.645974
lowerneck -12.771934 -1.623261 -2.551909
upperneck 26.058931 -1.538517 -0.447912
head 10.627626 -1.008038 0.058830
rclavicle -0.000000 0.000000
rhumerus -35.020461 -8.565652 -77.812781
rradius 29.574313
rwrist 0.561470
rhand -14.318897 10.977096
rfingers 7.125020
rthumb 11.826166 -18.625417
lclavicle -0.000000 0.000000
lhumerus -42.246477 8.597708 82.875115
lradius 33.592203
lwrist 4.010007
lhand -12.395535 45.970150
lfingers 7.125020
lthumb 13.662549 75.436056
rfemur -1.446179 5.093711 34.093295
rtibia 24.611311
rfoot -13.016573 -8.677646
rtoes 13.244613
lfemur -21.824737 0.195837 -13.456030
ltibia 63.105260
lfoot -1.135271 3.258190
ltoes -12.861358
4
root 9.268420 17.025800 -33.555600 1.856893 1.634016 0.102049
lowerback 13.744090 0.519148 4.047108
upperback -0.468518 1.689121 3.522282
thorax -8.279653 0.722875 1.200516
lowerneck -12.980403 -1.682563 -2.598809
upperneck 26.084699 -1.629865 -0.345240
head 10.697810 -1.041797 0.088596
rclavicle -0.000000 0.000000
rhumerus -34.006376 -7.562887 -78.457314
rradius 30.925896
rwrist -0.493294
rhand -14.366496 10.777263
rfingers 7.125020
rthumb 11.778425 -18.827635
lclavicle -0.000000 0.000000
lhumerus -42.207179 9.012130 82.362263
lradius 33.720499
lwrist 4.123579
lhand -12.369126 46.362809
lfingers 7.125020
lthumb 13.689606 75.813032
rfemur 0.613213 5.157822 34.743707
rtibia 24.195855
rfoot -14.097222 -8.631090
rtoes 13.071213
lfemur -24.555510 0.061283 -13.149582
ltibia 59.317177
lfoot -4.087258 4.912255
ltoes -12.830147
5
root 9.249270 17.016300 -33.220600 1.895286 1.634016 0.104540
lowerback 13.614332 0.778895 4.457314
upperback -0.435133 2.103117 3.434808
thorax -8.180481 0.899143 0.756488
lowerneck -13.175704 -1.738282 -2.636278
upperneck 26.110794 -1.713914 -0.267446
head 10.767843 -1.073389 0.109514
rclavicle -0.000000 0.000000
rhumerus -33.005046 -6.536313 -79.101489
rradius 32.294360
rwrist -1.544103
rhand -14.415969 10.568399
rfingers 7.125020
rthumb 11.728942 -19.038448
lclavicle -0.000000 0.000000
lhumerus -42.188935 9.432976 81.837862
lradius 33.856758
lwrist 4.228249
lhand -12.342860 46.737712
lfingers 7.125020
lthumb 13.716372 76.172537
rfemur 2.705823 5.217831 35.365322
rtibia 23.703690
rfoot -15.091389 -8.576233
rtoes 12.912853
lfemur -27.208076 -0.156821 -12.834719
ltibia 54.396741
lfoot -7.022856 6.802767
ltoes -12.736810
6
root 9.246830 17.017700 -32.897400 1.941685 1.634016 0.107176
lowerback 13.475641 1.053524 4.946174
upperback -0.408946 2.549072 3.337675
thorax -8.077186 1.088850 0.279759
lowerneck -13.370952 -1.793022 -2.667045
upperneck 26.137546 -1.795474 -0.202393
head 10.838752 -1.104269 0.124329
rclavicle -0.000000 0.000000
rhumerus -31.914123 -5.361467 -79.836819
rradius 33.726417
rwrist -2.675241
rhand -14.468436 10.278130
rfingers 7.125020
rthumb 11.676600 -19.331719
lclavicle -0.000000 0.000000
lhumerus -42.191038 9.874555 81.287382
lradius 34.015210
lwrist 4.330550
lhand -12.316118 47.100166
lfingers 7.125020
lthumb 13.743479 76.519529
rfemur 4.901503 5.275523 36.002829
rtibia 22.987542
rfoot -16.099076 -8.509658
rtoes 12.758901
lfemur -29.971673 -0.560171 -12.458472
ltibia 47.008112
lfoot -10.204463 9.099267
ltoes -12.540015
7
root 9.219480 17.016100 -32.563300 1.914122 1.634016 0.269959
lowerback 13.202659 1.186587 5.126325
upperback -0.549551 2.729255 3.262162
thorax -8.045070 1.171218 0.139694
lowerneck -13.230331 -1.708490 -2.785708
upperneck 25.970327 -1.662572 -0.170282
head 10.749327 -1.049652 0.180394
rclavicle -0.000000 0.000000
rhumerus -31.717599 -4.969787 -79.863602
rradius 34.338635
rwrist -2.861320
rhand -14.371615 10.272710
rfingers 7.125020
rthumb 11.769758 -19.338386
lclavicle -0.000000 0.000000
lhumerus -42.222395 9.954957 81.372267
lradius 34.127191
lwrist 4.278940
lhand -12.328566 46.992711
lfingers 7.125020
lthumb 13.729231 76.420168
rfemur 7.980756 5.395651 35.607525
rtibia 18.497158
rfoot -14.554406 -8.033890
rtoes 10.244023
lfemur -29.462081 -4.290885 -11.793730
ltibia 36.311888
lfoot -10.199301 10.834349
ltoes -12.682448
